<svg width="64" height="64" viewBox="0 0 64 64" fill="none" xmlns="http://www.w3.org/2000/svg">
<rect x="0.8" y="0.8" width="62.4" height="62.4" rx="31.2" stroke="#0c143a" stroke-width="1.6"/>
<path d="M47 15.3334H17C16.1159 15.3334 15.2681 15.6846 14.643 16.3097C14.0178 16.9348 13.6667 17.7827 13.6667 18.6667V38.6667C13.6667 39.5508 14.0178 40.3986 14.643 41.0237C15.2681 41.6489 16.1159 42 17 42H28.6667V45.3334H25.3333V48.6667H38.6667V45.3334H35.3333V42H47C47.884 42 48.7319 41.6489 49.357 41.0237C49.9821 40.3986 50.3333 39.5508 50.3333 38.6667V18.6667C50.3333 17.7827 49.9821 16.9348 49.357 16.3097C48.7319 15.6846 47.884 15.3334 47 15.3334ZM47 27H35.3333V30.3334H47V38.6667H17V30.3334H25.3333V35.3334L32 28.6667L25.3333 22V27H17V18.6667H47V27Z" fill="#0c143a"/>
</svg>
