<svg width="209" height="32" viewBox="0 0 209 32" fill="none" xmlns="http://www.w3.org/2000/svg">
<path d="M74.0754 1.12579C74.0496 1.24261 74.0128 1.35578 73.9999 1.47443C73.8986 2.48384 73.8029 3.49325 73.7034 4.50449C73.7016 4.52457 73.685 4.54465 73.6593 4.59941C73.0111 4.65052 72.3408 4.61401 71.6723 4.61949C70.9892 4.62679 70.3023 4.61949 69.6191 4.61949H55.3351C54.6446 12.1965 53.9633 19.7442 53.2782 27.3358C53.4219 27.3468 53.5397 27.3614 53.6576 27.3614C54.4881 27.3632 55.3186 27.3614 56.149 27.3614H71.3372C71.1954 28.7413 71.061 30.0684 70.9229 31.4118H46.6049C47.3857 22.4895 48.1664 13.5929 48.949 4.65782C48.8349 4.64322 48.7409 4.61949 48.647 4.61949C46.4373 4.61766 44.2258 4.61766 42.0142 4.61949C41.9368 4.61949 41.8595 4.63409 41.7343 4.64504C40.8044 13.5582 39.891 22.4731 38.9629 31.3771C38.6922 31.4483 32.1165 31.4629 31.7058 31.3917C31.8163 29.9114 32.0023 28.4329 32.1459 26.9507C32.2877 25.463 32.4516 23.9772 32.6063 22.4914C32.761 21.0056 32.9157 19.5179 33.0703 18.0321C33.2232 16.5572 33.3779 15.0805 33.5307 13.6056C33.6835 12.1198 33.8364 10.6322 33.9892 9.14633C34.1421 7.66233 34.293 6.1765 34.4385 4.73083C34.4017 4.6779 34.3962 4.66877 34.3888 4.66147C34.3814 4.65417 34.3704 4.64687 34.3593 4.64504C34.271 4.63592 34.1826 4.61949 34.0942 4.61949C26.071 4.61949 18.0461 4.62314 10.0229 4.62679C9.99163 4.62679 9.96032 4.64687 9.88851 4.6706C9.15193 12.2001 8.41352 19.7442 7.66958 27.3303C7.82978 27.3431 7.96789 27.3614 8.106 27.3614C11.091 27.3632 14.0759 27.3614 17.0627 27.3614H17.5065C17.9282 23.3657 18.3444 19.4011 18.7605 15.4602C18.7237 15.4255 18.7163 15.4164 18.7071 15.4091C18.6979 15.4018 18.6887 15.3945 18.6795 15.3908C18.6574 15.3853 18.6353 15.3817 18.6132 15.3799C18.5801 15.378 18.5469 15.3762 18.5138 15.3762C16.0223 15.3726 13.5309 15.3707 11.0394 15.3671C11.0302 15.3671 11.0191 15.3598 11.0081 15.358C10.9547 15.1024 11.2328 12.3461 11.3727 11.7566C11.6379 11.6908 25.9108 11.6835 26.2699 11.7566C25.6917 18.3004 25.1153 24.8497 24.5334 31.4136H0C0.955705 21.1406 1.90957 10.8822 2.86527 0.605569C2.97024 0.589141 3.05494 0.570888 3.13965 0.565412C3.24093 0.55811 3.3422 0.563586 3.44164 0.563586C26.8076 0.563586 50.1736 0.563586 73.5396 0.563586C73.7182 0.563586 73.895 0.58184 74.0754 0.590966V1.12762V1.12579Z" fill="#F2F6F9"/>
<path d="M90.2071 7.76248H85.4743L83.6999 24.2375H88.4327L90.2071 7.76248Z" fill="#F2F6F9"/>
<path d="M78.3284 24.2375H83.0612L84.8356 7.76248H80.1028L78.3284 24.2375Z" fill="#F2F6F9"/>
<path d="M79.4621 7.76248H75.7705L74.0754 24.2375H77.6909L79.4621 7.76248Z" fill="#F2F6F9"/>
<path d="M90.8446 7.76248L89.0702 24.2375L99.3761 24.2375L102.039 7.76248H90.8446Z" fill="#F2F6F9"/>
<path d="M103.132 24L105.791 7.25866H111.942C113.113 7.25866 114.103 7.43281 114.91 7.78109C115.717 8.11354 116.327 8.62013 116.738 9.30087C117.166 9.96577 117.38 10.7969 117.38 11.7943C117.38 12.9499 117.134 13.9473 116.643 14.7863C116.168 15.6254 115.456 16.2744 114.506 16.7335C113.572 17.1768 112.417 17.3985 111.039 17.3985H106.385L105.34 24H103.132ZM106.67 15.6175H111.182C112.496 15.6175 113.493 15.3088 114.174 14.6913C114.87 14.0581 115.219 13.1399 115.219 11.9367C115.219 10.9394 114.926 10.2112 114.34 9.75205C113.754 9.29295 112.884 9.0634 111.728 9.0634H107.715L106.67 15.6175ZM114.873 24L124.965 7.25866H126.841L131.591 24H129.454L128.219 19.3457L129.002 19.8206H118.958L119.979 19.3932L117.272 24H114.873ZM125.607 9.75205L120.549 18.3958L120.026 18.0159H128.527L127.958 18.4196L125.654 9.75205H125.607ZM136.411 24L137.788 15.3325L138.025 16.8048L132.659 7.25866H135.057L139.141 14.5726H138.595L145.031 7.25866H147.666L139.26 16.8048L139.996 15.3325L138.619 24H136.411ZM153.333 24.2137C151.909 24.2137 150.666 23.9367 149.605 23.3826C148.56 22.8285 147.745 22.0132 147.159 20.9367C146.589 19.8443 146.304 18.5304 146.304 16.9948C146.304 15.5858 146.494 14.2797 146.874 13.0766C147.254 11.8576 147.808 10.7969 148.537 9.89453C149.281 8.99216 150.175 8.2956 151.22 7.80484C152.281 7.29824 153.492 7.04494 154.853 7.04494C156.278 7.04494 157.513 7.32199 158.558 7.87608C159.618 8.43016 160.434 9.24546 161.004 10.322C161.589 11.3985 161.882 12.7045 161.882 14.2402C161.882 15.665 161.692 16.9868 161.312 18.2058C160.932 19.409 160.37 20.4618 159.626 21.3641C158.898 22.2665 158.004 22.971 156.943 23.4776C155.898 23.9683 154.695 24.2137 153.333 24.2137ZM153.381 22.2665C154.726 22.2665 155.851 21.9182 156.753 21.2217C157.671 20.5251 158.368 19.5752 158.843 18.3721C159.333 17.1689 159.579 15.7995 159.579 14.2639C159.579 12.4908 159.151 11.1689 158.296 10.2982C157.457 9.42752 156.286 8.99216 154.782 8.99216C153.452 8.99216 152.328 9.34045 151.41 10.037C150.508 10.7177 149.811 11.6597 149.32 12.8629C148.845 14.066 148.608 15.4354 148.608 16.971C148.608 18.7599 149.035 20.0897 149.89 20.9604C150.745 21.8311 151.909 22.2665 153.381 22.2665ZM170.846 24.2137C169.785 24.2137 168.843 24.0633 168.02 23.7625C167.213 23.4617 166.54 23.0106 166.002 22.409C165.479 21.7916 165.123 21.0238 164.933 20.1056C164.743 19.1874 164.751 18.1188 164.957 16.8998L166.477 7.25866H168.685L167.118 17.0897C166.849 18.7995 167.039 20.0897 167.688 20.9604C168.337 21.8311 169.429 22.2665 170.965 22.2665C172.469 22.2665 173.648 21.8866 174.503 21.1267C175.358 20.3668 175.92 19.1557 176.189 17.4934L177.804 7.25866H180.012L178.374 17.5409C178.152 19.0132 177.733 20.248 177.115 21.2454C176.514 22.2269 175.69 22.971 174.646 23.4776C173.617 23.9683 172.35 24.2137 170.846 24.2137ZM185.366 24L187.741 9.13464H181.733L182.018 7.25866H196.242L195.957 9.13464H189.949L187.575 24H185.366ZM201.111 24.2137C200.303 24.2137 199.512 24.1425 198.736 24C197.96 23.8734 197.224 23.6596 196.527 23.3588C195.847 23.0581 195.229 22.6623 194.675 22.1715L195.554 20.5093C196.14 20.9525 196.733 21.3087 197.335 21.5778C197.952 21.847 198.585 22.0369 199.235 22.1478C199.899 22.2586 200.588 22.314 201.301 22.314C202.124 22.314 202.836 22.2032 203.438 21.9815C204.055 21.7441 204.53 21.4116 204.862 20.9842C205.211 20.5567 205.385 20.0581 205.385 19.4882C205.385 19.0765 205.29 18.7045 205.1 18.3721C204.91 18.0396 204.601 17.7547 204.174 17.5172C203.746 17.2639 203.161 17.0581 202.417 16.8998L199.923 16.3061C198.815 16.037 197.928 15.57 197.264 14.9051C196.599 14.2402 196.266 13.3061 196.266 12.103C196.266 11.3272 196.425 10.6307 196.741 10.0133C197.074 9.38003 197.533 8.84177 198.118 8.3985C198.704 7.95523 199.377 7.62278 200.137 7.40114C200.913 7.16368 201.736 7.04494 202.607 7.04494C203.667 7.04494 204.712 7.21117 205.741 7.54362C206.786 7.86024 207.68 8.39058 208.424 9.13464L207.546 10.7732C206.833 10.1241 206.042 9.65707 205.171 9.37211C204.316 9.08715 203.446 8.94467 202.559 8.94467C201.768 8.94467 201.063 9.07132 200.446 9.32462C199.828 9.57791 199.345 9.9262 198.997 10.3695C198.649 10.8127 198.475 11.3431 198.475 11.9605C198.475 12.7204 198.665 13.2824 199.045 13.6465C199.44 14.0106 200.026 14.2877 200.802 14.4776L203.271 15.095C204.76 15.4117 205.852 15.9262 206.549 16.6386C207.245 17.351 207.593 18.2138 207.593 19.2269C207.593 20.0502 207.419 20.7705 207.071 21.3879C206.738 22.0053 206.271 22.5277 205.67 22.9552C205.084 23.3668 204.395 23.6834 203.604 23.905C202.828 24.1108 201.997 24.2137 201.111 24.2137Z" fill="#F2F6F9"/>
</svg>
