<svg width="64" height="64" viewBox="0 0 64 64" fill="none" xmlns="http://www.w3.org/2000/svg">
<rect x="0.8" y="0.8" width="62.4" height="62.4" rx="31.2" stroke="#0c143a" stroke-width="1.6"/>
<path d="M38.6666 22C38.6666 18.8567 38.6666 17.2867 37.69 16.31C36.7133 15.3334 35.1433 15.3334 32 15.3334C28.8566 15.3334 27.2866 15.3334 26.31 16.31C25.3333 17.2867 25.3333 18.8567 25.3333 22M15.3333 35.3334C15.3333 29.0484 15.3333 25.905 17.2866 23.9534C19.24 22.0017 22.3816 22 28.6666 22H35.3333C41.6183 22 44.7616 22 46.7133 23.9534C48.665 25.9067 48.6666 29.0484 48.6666 35.3334C48.6666 41.6184 48.6666 44.7617 46.7133 46.7134C44.76 48.665 41.6183 48.6667 35.3333 48.6667H28.6666C22.3816 48.6667 19.2383 48.6667 17.2866 46.7134C15.335 44.76 15.3333 41.6184 15.3333 35.3334Z" stroke="#0c143a" stroke-width="2.5"/>
<path d="M32 40.8884C33.8416 40.8884 35.3333 39.6451 35.3333 38.1117C35.3333 36.5784 33.8416 35.3334 32 35.3334C30.1583 35.3334 28.6666 34.0901 28.6666 32.5551C28.6666 31.0217 30.1583 29.7784 32 29.7784M32 40.8884C30.1583 40.8884 28.6666 39.6451 28.6666 38.1117M32 40.8884V42.0001M32 29.7784V28.6667M32 29.7784C33.8416 29.7784 35.3333 31.0217 35.3333 32.5551" stroke="#0c143a" stroke-width="2.5" stroke-linecap="round"/>
</svg>
