<svg width="64" height="64" viewBox="0 0 64 64" fill="none" xmlns="http://www.w3.org/2000/svg">
<rect x="0.8" y="0.8" width="62.4" height="62.4" rx="31.2" stroke="#ED8946" stroke-width="1.6"/>
<path d="M38.6668 22C38.6668 18.8567 38.6668 17.2867 37.6902 16.31C36.7135 15.3333 35.1435 15.3333 32.0002 15.3333C28.8568 15.3333 27.2868 15.3333 26.3102 16.31C25.3335 17.2867 25.3335 18.8567 25.3335 22M15.3335 35.3333C15.3335 29.0483 15.3335 25.905 17.2868 23.9533C19.2402 22.0017 22.3818 22 28.6668 22H35.3335C41.6185 22 44.7618 22 46.7135 23.9533C48.6652 25.9067 48.6668 29.0483 48.6668 35.3333C48.6668 41.6183 48.6668 44.7617 46.7135 46.7133C44.7602 48.665 41.6185 48.6667 35.3335 48.6667H28.6668C22.3818 48.6667 19.2385 48.6667 17.2868 46.7133C15.3352 44.76 15.3335 41.6183 15.3335 35.3333Z" stroke="#ED8946" stroke-width="2.5"/>
<path d="M32.0003 40.8884C33.842 40.8884 35.3337 39.645 35.3337 38.1117C35.3337 36.5784 33.842 35.3334 32.0003 35.3334C30.1587 35.3334 28.667 34.09 28.667 32.555C28.667 31.0217 30.1587 29.7784 32.0003 29.7784M32.0003 40.8884C30.1587 40.8884 28.667 39.645 28.667 38.1117M32.0003 40.8884V42M32.0003 29.7784V28.6667M32.0003 29.7784C33.842 29.7784 35.3337 31.0217 35.3337 32.555" stroke="#ED8946" stroke-width="2.5" stroke-linecap="round"/>
</svg>
