<svg width="64" height="64" viewBox="0 0 64 64" fill="none" xmlns="http://www.w3.org/2000/svg">
<rect x="0.8" y="0.8" width="62.4" height="62.4" rx="31.2" stroke="#0c143a" stroke-width="1.6"/>
<path d="M46.9998 15.3333H16.9998C16.1158 15.3333 15.2679 15.6845 14.6428 16.3096C14.0177 16.9347 13.6665 17.7826 13.6665 18.6666V38.6666C13.6665 39.5507 14.0177 40.3985 14.6428 41.0237C15.2679 41.6488 16.1158 42 16.9998 42H28.6665V45.3333H25.3332V48.6666H38.6665V45.3333H35.3332V42H46.9998C47.8839 42 48.7317 41.6488 49.3569 41.0237C49.982 40.3985 50.3332 39.5507 50.3332 38.6666V18.6666C50.3332 17.7826 49.982 16.9347 49.3569 16.3096C48.7317 15.6845 47.8839 15.3333 46.9998 15.3333ZM46.9998 27H35.3332V30.3333H46.9998V38.6666H16.9998V30.3333H25.3332V35.3333L31.9998 28.6666L25.3332 22V27H16.9998V18.6666H46.9998V27Z" fill="#0c143a"/>
</svg>
