<svg width="64" height="64" viewBox="0 0 64 64" fill="none" xmlns="http://www.w3.org/2000/svg">
<rect x="0.8" y="0.8" width="62.4" height="62.4" rx="31.2" stroke="#ED8946" stroke-width="1.6"/>
<path d="M32 50C36.7739 50 41.3523 48.1036 44.7279 44.7279C48.1036 41.3523 50 36.7739 50 32C50 27.2261 48.1036 22.6477 44.7279 19.2721C41.3523 15.8964 36.7739 14 32 14C27.2261 14 22.6477 15.8964 19.2721 19.2721C15.8964 22.6477 14 27.2261 14 32C14 36.7739 15.8964 41.3523 19.2721 44.7279C22.6477 48.1036 27.2261 50 32 50Z" stroke="#ED8946" stroke-width="2.5" stroke-linecap="round" stroke-linejoin="round"/>
<path d="M14 32H50M32 50C36.4185 50 39.9996 41.9417 39.9996 32C39.9996 22.0583 36.4185 14 32 14C27.5815 14 24.0004 22.0583 24.0004 32C24.0004 41.9417 27.5815 50 32 50Z" stroke="#ED8946" stroke-width="2.5" stroke-linecap="round" stroke-linejoin="round"/>
</svg>
