<svg width="65" height="64" viewBox="0 0 65 64" fill="none" xmlns="http://www.w3.org/2000/svg">
<g clip-path="url(#clip0_742_6083)">
<path d="M56.5002 7.99994L39.1669 55.9999C39.0499 56.2552 38.862 56.4716 38.6257 56.6233C38.3893 56.775 38.1144 56.8556 37.8335 56.8556C37.5527 56.8556 37.2777 56.775 37.0414 56.6233C36.805 56.4716 36.6172 56.2552 36.5002 55.9999L27.1669 37.3333L8.50019 27.9999C8.24488 27.8829 8.02852 27.6951 7.87684 27.4587C7.72516 27.2224 7.64453 26.9474 7.64453 26.6666C7.64453 26.3858 7.72516 26.1108 7.87684 25.8745C8.02852 25.6381 8.24488 25.4503 8.50019 25.3333L56.5002 7.99994Z" stroke="#0c143a" stroke-width="2" stroke-linecap="round" stroke-linejoin="round"/>
</g>
<defs>
<clipPath id="clip0_742_6083">
<rect width="64" height="64" fill="white" transform="translate(0.5)"/>
</clipPath>
</defs>
</svg>
