<svg width="65" height="64" viewBox="0 0 65 64" fill="none" xmlns="http://www.w3.org/2000/svg">
<path d="M34.4199 28.8C33.1399 28.48 31.8599 27.84 30.8999 26.88C29.9399 26.56 29.6199 25.6 29.6199 24.96C29.6199 24.32 29.9399 23.36 30.5799 23.04C31.5399 22.4 32.4999 21.76 33.4599 22.08C35.3799 22.08 36.9799 23.04 37.9399 24.32L40.8199 20.48C39.8599 19.52 38.8999 18.88 37.9399 18.24C36.9799 17.6 35.6999 17.28 34.4199 17.28V12.8H30.5799V17.28C28.9799 17.6 27.3799 18.56 26.0999 19.84C24.8199 21.44 23.8599 23.36 24.1799 25.28C24.1799 27.2 24.8199 29.12 26.0999 30.4C27.6999 32 29.9399 32.96 31.8599 33.92C32.8199 34.24 34.0999 34.88 35.0599 35.52C35.6999 36.16 36.0199 37.12 36.0199 38.08C36.0199 39.04 35.6999 40 35.0599 40.96C34.0999 41.92 32.8199 42.24 31.8599 42.24C30.5799 42.24 28.9799 41.92 28.0199 40.96C27.0599 40.32 26.0999 39.36 25.4599 38.4L22.2599 41.92C23.2199 43.2 24.1799 44.16 25.4599 45.12C27.0599 46.08 28.9799 47.04 30.8999 47.04V51.2H34.4199V46.4C36.3399 46.08 37.9399 45.12 39.2199 43.84C40.8199 42.24 41.7799 39.68 41.7799 37.44C41.7799 35.52 41.1399 33.28 39.5399 32C37.9399 30.4 36.3399 29.44 34.4199 28.8ZM32.4999 6.39999C18.4199 6.39999 6.8999 17.92 6.8999 32C6.8999 46.08 18.4199 57.6 32.4999 57.6C46.5799 57.6 58.0999 46.08 58.0999 32C58.0999 17.92 46.5799 6.39999 32.4999 6.39999ZM32.4999 54.08C20.3399 54.08 10.4199 44.16 10.4199 32C10.4199 19.84 20.3399 9.91999 32.4999 9.91999C44.6599 9.91999 54.5799 19.84 54.5799 32C54.5799 44.16 44.6599 54.08 32.4999 54.08Z" fill="#0c143a"/>
</svg>
