<svg width="65" height="64" viewBox="0 0 65 64" fill="none" xmlns="http://www.w3.org/2000/svg">
<path d="M37.1666 26.6667C37.1666 27.7707 38.0626 28.6667 39.1666 28.6667H41.0066L35.6386 34.0347C35.5767 34.0967 35.5031 34.146 35.4221 34.1796C35.3411 34.2132 35.2543 34.2305 35.1666 34.2305C35.0789 34.2305 34.9921 34.2132 34.9111 34.1796C34.8301 34.146 34.7565 34.0967 34.6946 34.0347L30.4653 29.8053C29.5902 28.9309 28.4037 28.4397 27.1666 28.4397C25.9295 28.4397 24.743 28.9309 23.8679 29.8053L17.7533 35.92C17.5568 36.1031 17.3991 36.3239 17.2898 36.5692C17.1805 36.8146 17.1217 37.0794 17.117 37.3479C17.1123 37.6165 17.1617 37.8832 17.2623 38.1323C17.3628 38.3813 17.5126 38.6075 17.7025 38.7974C17.8924 38.9873 18.1186 39.1371 18.3677 39.2377C18.6167 39.3382 18.8834 39.3876 19.152 39.3829C19.4205 39.3782 19.6854 39.3194 19.9307 39.2101C20.176 39.1008 20.3968 38.9432 20.5799 38.7467L26.6946 32.632C26.7565 32.5699 26.8301 32.5206 26.9111 32.487C26.9921 32.4534 27.0789 32.4361 27.1666 32.4361C27.2543 32.4361 27.3411 32.4534 27.4221 32.487C27.5031 32.5206 27.5767 32.5699 27.6386 32.632L31.8679 36.8613C32.743 37.7358 33.9295 38.227 35.1666 38.227C36.4037 38.227 37.5902 37.7358 38.4653 36.8613L43.8333 31.496V33.3333C43.8333 33.8638 44.044 34.3725 44.419 34.7475C44.7941 35.1226 45.3028 35.3333 45.8333 35.3333C46.3637 35.3333 46.8724 35.1226 47.2475 34.7475C47.6225 34.3725 47.8333 33.8638 47.8333 33.3333V26.6667C47.8333 26.1362 47.6225 25.6275 47.2475 25.2524C46.8724 24.8774 46.3637 24.6667 45.8333 24.6667H39.1666C38.6362 24.6667 38.1274 24.8774 37.7524 25.2524C37.3773 25.6275 37.1666 26.1362 37.1666 26.6667Z" fill="#03A7D9"/>
<path fill-rule="evenodd" clip-rule="evenodd" d="M32.3479 3.33334C26.1906 3.33334 21.3666 3.33334 17.6013 3.84001C13.7506 4.35734 10.7106 5.44001 8.32392 7.82401C5.93725 10.2107 4.85725 13.2507 4.33992 17.104C3.83325 20.8667 3.83325 25.6907 3.83325 31.848V32.152C3.83325 38.3093 3.83325 43.1333 4.33992 46.8987C4.85725 50.7493 5.93992 53.7893 8.32392 56.176C10.7106 58.5627 13.7506 59.6427 17.6039 60.16C21.3666 60.6667 26.1906 60.6667 32.3479 60.6667H32.6519C38.8092 60.6667 43.6333 60.6667 47.3986 60.16C51.2492 59.6427 54.2892 58.56 56.6759 56.176C59.0626 53.7893 60.1426 50.7493 60.6599 46.896C61.1666 43.1333 61.1666 38.3093 61.1666 32.152V31.848C61.1666 25.6907 61.1666 20.8667 60.6599 17.1013C60.1426 13.2507 59.0599 10.2107 56.6759 7.82401C54.2892 5.43734 51.2493 4.35734 47.3959 3.84001C43.6333 3.33334 38.8092 3.33334 32.6519 3.33334H32.3479ZM11.1533 10.6533C12.6733 9.13334 14.7266 8.26134 18.1373 7.80268C21.6039 7.33868 26.1586 7.33334 32.4999 7.33334C38.8413 7.33334 43.3959 7.33868 46.8626 7.80268C50.2732 8.26134 52.3293 9.13601 53.8493 10.6533C55.3666 12.1733 56.2386 14.2267 56.6972 17.6373C57.1612 21.104 57.1666 25.6587 57.1666 32C57.1666 38.3413 57.1612 42.896 56.6972 46.3627C56.2386 49.7733 55.3639 51.8293 53.8466 53.3493C52.3266 54.8667 50.2732 55.7387 46.8626 56.1973C43.3959 56.6613 38.8413 56.6667 32.4999 56.6667C26.1586 56.6667 21.6039 56.6613 18.1373 56.1973C14.7266 55.7387 12.6706 54.864 11.1506 53.3467C9.63325 51.8267 8.76125 49.7733 8.30259 46.3627C7.83859 42.896 7.83325 38.3413 7.83325 32C7.83325 25.6587 7.83859 21.104 8.30259 17.6373C8.76125 14.2267 9.63592 12.1733 11.1533 10.6533Z" fill="#03A7D9"/>
</svg>
