<svg width="65" height="64" viewBox="0 0 65 64" fill="none" xmlns="http://www.w3.org/2000/svg">
<path d="M12.7625 27.424C13.5532 27.7627 14.3292 28.0973 15.1545 28.3827M17.0719 52.964C14.2452 49.532 14.7199 44.3373 11.2492 41.3093C9.70519 39.564 9.93586 37.0533 10.3559 34.9333C10.5905 31.4347 7.47319 28.656 7.35052 25.1093M25.5039 7.27068C25.2532 11.824 19.2945 9.05734 18.3892 13.1093C19.5199 14.2933 21.0372 13.132 21.9945 12.6187C26.8372 12.792 24.5145 17.208 21.0279 17.564C18.6985 18.7973 15.7985 20.0507 14.5572 22.6107C13.7452 23.2787 13.8785 24.804 12.3705 24.7067C11.7879 23.88 11.9599 20.8187 10.4892 22.3333C7.22386 24.5813 11.0892 27.9627 11.1745 30.9693C16.7825 30.4627 19.5479 35.5533 23.5799 38.4533C25.7319 40.1813 30.1345 41.836 26.7599 44.7813C24.9839 48.4333 19.7999 51.424 21.8732 55.8147C21.8519 56.0147 22.1319 55.976 22.0372 56.204M57.1318 40.22C54.4358 40.02 53.8865 44.3867 54.4332 46.332M34.2545 15.912C34.4759 15.8587 34.7119 15.808 34.8959 15.6667C35.2345 15.4627 35.1812 14.8933 35.1452 14.5333C34.9852 14.2587 34.8519 13.776 34.5332 13.5813M56.6705 21.8973C55.5305 22.216 52.5972 20.6307 53.7852 22.4547C53.9759 23.6907 55.0385 23.98 55.6332 24.4C56.0772 25.292 56.3745 27.548 55.1559 28.004C54.3812 28.032 50.3172 23.8933 51.4452 26.324C51.6639 27.9013 52.8545 29.1587 53.8158 30.1507C54.3198 31.5507 56.5319 30.816 56.6159 31.8893C55.7865 34.5933 54.0239 36.4987 52.9225 39.052C53.1172 41.92 53.0159 44.7987 51.3145 47.2387C43.5665 55.7587 41.6879 46.6307 44.3865 39.396C45.3705 30.7733 36.3919 38.0533 33.3465 33.7253C30.5999 30.8293 33.0025 25.5427 35.8105 23.4827C36.8505 22.3453 38.6519 22.2973 40.0639 22.7693C42.9065 23.2307 46.9519 23.0093 49.4372 21.5573C49.2718 20.6813 47.8105 19.752 46.8159 19.6613C46.6519 18.7427 48.9799 18.4213 47.4492 17.6467C45.7119 17.496 45.7145 20.8413 44.0932 19.0827C43.7132 17.924 41.1839 17.928 42.6719 19.1667C42.7385 20.508 42.8545 21.396 41.9985 19.9533C39.7252 18.74 37.5879 21.3933 35.5132 21.7107C33.5105 19.3907 38.4999 14.568 40.6625 13.8253C42.0679 12.6347 38.6785 10.7813 39.4892 12.9587C38.9252 14.3733 35.9132 13.3827 37.2865 11.9987C37.6572 10.6613 38.6999 9.74134 39.8252 9.33601C41.2279 9.47868 41.8225 9.40934 41.8372 7.85868M28.5572 6.97068C28.4425 7.88401 28.9239 8.75201 28.8239 9.66534C28.8239 10.476 26.8025 11.9253 27.9945 12.3C29.2385 12.72 30.1545 12.236 30.9012 11.2507C32.2572 10.2067 33.4745 9.13334 33.2572 7.21068C33.0825 7.14801 32.8279 7.10001 32.8732 6.98668C31.5799 5.97868 29.9825 6.41868 28.5572 6.97068ZM58.8132 32C58.8132 46.5333 47.0332 58.3133 32.4999 58.3133C17.9665 58.3133 6.18652 46.5333 6.18652 32C6.18652 17.4667 17.9665 5.68668 32.4999 5.68668C47.0332 5.68668 58.8132 17.4667 58.8132 32Z" stroke="url(#paint0_linear_742_6055)" stroke-width="2" stroke-linecap="round" stroke-linejoin="round"/>
<defs>
<linearGradient id="paint0_linear_742_6055" x1="6.18652" y1="5.68668" x2="58.8132" y2="58.3147" gradientUnits="userSpaceOnUse">
<stop stop-color="#003651"/>
<stop offset="0.350973" stop-color="#04417B"/>
<stop offset="1" stop-color="#b88857"/>
</linearGradient>
</defs>
</svg>
