<svg width="65" height="64" viewBox="0 0 65 64" fill="none" xmlns="http://www.w3.org/2000/svg">
<path d="M32.4998 17.3333V57.3333M32.4998 17.3333V10.6667M32.4998 17.3333H25.8332C24.5146 17.3333 23.2257 16.9423 22.1294 16.2098C21.033 15.4773 20.1786 14.4361 19.674 13.2179C19.1694 11.9997 19.0374 10.6593 19.2946 9.36607C19.5518 8.07286 20.1868 6.88497 21.1191 5.95262C22.0515 5.02027 23.2394 4.38534 24.5326 4.1281C25.8258 3.87087 27.1662 4.00289 28.3844 4.50747C29.6026 5.01206 30.6438 5.86654 31.3763 6.96287C32.1088 8.0592 32.4998 9.34813 32.4998 10.6667M32.4998 17.3333H39.1665C40.485 17.3333 41.774 16.9423 42.8703 16.2098C43.9666 15.4773 44.8211 14.4361 45.3257 13.2179C45.8303 11.9997 45.9623 10.6593 45.7051 9.36607C45.4478 8.07286 44.8129 6.88497 43.8806 5.95262C42.9482 5.02027 41.7603 4.38534 40.4671 4.1281C39.1739 3.87087 37.8335 4.00289 36.6153 4.50747C35.3971 5.01206 34.3559 5.86654 33.6234 6.96287C32.8908 8.0592 32.4998 9.34813 32.4998 10.6667M9.1665 37.3333H55.8332M9.1665 37.3333C9.1665 31.1253 8.55317 24.9333 7.33717 18.848L7.1665 18V17.3333H57.8332V18L57.6625 18.848C56.4465 24.9347 55.8337 31.1264 55.8332 37.3333M9.1665 37.3333C9.1665 43.5413 8.55317 49.7333 7.33717 55.8187L7.1665 56.6667V57.3333H57.8332V56.6667L57.6625 55.8187C56.4465 49.732 55.8337 43.5403 55.8332 37.3333" stroke="#b88857" stroke-width="2"/>
</svg>
