<svg width="24" height="24" viewBox="0 0 24 24" fill="none" xmlns="http://www.w3.org/2000/svg">
<g clip-path="url(#clip0_390_1971)">
<path fill-rule="evenodd" clip-rule="evenodd" d="M23.25 12C23.2502 14.1235 21.971 16.0381 20.0091 16.8507C18.0472 17.6634 15.789 17.2141 14.2875 15.7125L14.2566 15.6797L8.63625 9.33281C7.16728 7.88101 4.80094 7.89028 3.34339 9.35355C1.88584 10.8168 1.88584 13.1832 3.34339 14.6465C4.80094 16.1097 7.16728 16.119 8.63625 14.6672L9.435 13.7653C9.70968 13.4547 10.1842 13.4255 10.4948 13.7002C10.8055 13.9748 10.8347 14.4493 10.56 14.76L9.74531 15.6797L9.71437 15.7125C7.66407 17.7626 4.34005 17.7625 2.28988 15.7122C0.239712 13.662 0.239712 10.338 2.28988 8.28775C4.34005 6.23751 7.66407 6.2374 9.71437 8.2875L9.74531 8.32031L15.3656 14.6672C16.8346 16.119 19.2009 16.1097 20.6585 14.6465C22.116 13.1832 22.116 10.8168 20.6585 9.35355C19.2009 7.89028 16.8346 7.88101 15.3656 9.33281L14.5669 10.2347C14.2922 10.5453 13.8177 10.5745 13.507 10.2998C13.1964 10.0252 13.1672 9.55066 13.4419 9.24L14.2566 8.32031L14.2875 8.2875C15.789 6.78585 18.0472 6.33661 20.0091 7.14927C21.971 7.96194 23.2502 9.87646 23.25 12Z" fill="#b88857"/>
</g>
<defs>
<clipPath id="clip0_390_1971">
<rect width="24" height="24" fill="white"/>
</clipPath>
</defs>
</svg>
