<?xml version="1.0" encoding="UTF-8"?>
<svg id="Layer_1" xmlns="http://www.w3.org/2000/svg" version="1.1" viewBox="0 0 281.1 40.2">
  <!-- Generator: Adobe Illustrator 29.8.2, SVG Export Plug-In . SVG Version: 2.1.1 Build 3)  -->
  <defs>
    <style>
      .st0 {
        fill: #04417b;
      }

      .st1 {
        fill: #03a7d9;
      }
    </style>
  </defs>
  <path class="st0" d="M127.3,3.7c0,.1,0,.3,0,.4-.1,1.1-.2,2.3-.3,3.4,0,0,0,0,0,.1-.7,0-1.5,0-2.2,0-.8,0-1.5,0-2.3,0h-16.1c-.8,8.6-1.5,17.1-2.3,25.7.2,0,.3,0,.4,0h19.9c-.2,1.6-.3,3.1-.5,4.6h-27.4c.9-10.1,1.8-20.2,2.6-30.3-.1,0-.2,0-.3,0h-7.5c0,0-.2,0-.3,0-1,10.1-2.1,20.2-3.1,30.3-.3,0-7.7,0-8.2,0,.1-1.7.3-3.4.5-5,.2-1.7.3-3.4.5-5.1.2-1.7.3-3.4.5-5.1.2-1.7.3-3.3.5-5,.2-1.7.3-3.4.5-5.1.2-1.7.3-3.4.5-5,0,0,0,0,0,0,0,0,0,0,0,0,0,0-.2,0-.3,0-9,0-18.1,0-27.1,0,0,0,0,0-.2,0-.8,8.5-1.7,17.1-2.5,25.7.2,0,.3,0,.5,0h10.6c.5-4.5.9-9,1.4-13.5,0,0,0,0,0,0,0,0,0,0,0,0,0,0,0,0,0,0,0,0,0,0-.1,0-2.8,0-5.6,0-8.4,0,0,0,0,0,0,0,0-.3.3-3.4.4-4.1.3,0,16.4,0,16.8,0-.7,7.4-1.3,14.8-2,22.3h-27.6c1.1-11.6,2.2-23.3,3.2-34.9.1,0,.2,0,.3,0,.1,0,.2,0,.3,0h78.9c.2,0,.4,0,.6,0v.6h0Z"/>
  <path class="st1" d="M145.5,11.3h-5.3l-2,18.7h5.3l2-18.7Z"/>
  <path class="st1" d="M132.1,29.9h5.3l2-18.7h-5.3l-2,18.7Z"/>
  <path class="st1" d="M133.4,11.3h-4.2l-1.9,18.7h4.1l2-18.7Z"/>
  <path class="st1" d="M146.2,11.3l-2,18.7h11.6l3-18.7h-12.6Z"/>
  <path class="st1" d="M160,29.7l3-19h6.9c1.3,0,2.4.2,3.3.6.9.4,1.6,1,2.1,1.7.5.8.7,1.7.7,2.8s-.3,2.4-.8,3.4c-.5,1-1.3,1.7-2.4,2.2-1.1.5-2.4.8-3.9.8h-5.2l-1.2,7.5h-2.5ZM164,20.2h5.1c1.5,0,2.6-.3,3.4-1,.8-.7,1.2-1.8,1.2-3.1s-.3-2-1-2.5c-.7-.5-1.6-.8-2.9-.8h-4.5l-1.2,7.4ZM173.2,29.7l11.4-19h2.1l5.3,19h-2.4l-1.4-5.3.9.5h-11.3l1.2-.5-3.1,5.2h-2.7ZM185.3,13.5l-5.7,9.8-.6-.4h9.6l-.6.5-2.6-9.8h0ZM197.5,29.7l1.5-9.8.3,1.7-6-10.8h2.7l4.6,8.3h-.6l7.2-8.3h3l-9.5,10.8.8-1.7-1.6,9.8h-2.5ZM216.5,29.9c-1.6,0-3-.3-4.2-.9-1.2-.6-2.1-1.6-2.8-2.8-.6-1.2-1-2.7-1-4.5s.2-3.1.6-4.4c.4-1.4,1.1-2.6,1.9-3.6.8-1,1.8-1.8,3-2.4,1.2-.6,2.6-.9,4.1-.9s3,.3,4.2.9c1.2.6,2.1,1.6,2.8,2.8.7,1.2,1,2.7,1,4.4s-.2,3.1-.6,4.5c-.4,1.4-1.1,2.6-1.9,3.6-.8,1-1.8,1.8-3,2.4-1.2.6-2.5.8-4.1.8h0ZM216.6,27.7c1.5,0,2.8-.4,3.8-1.2,1-.8,1.8-1.9,2.4-3.2.6-1.4.8-2.9.8-4.7s-.5-3.5-1.4-4.5c-.9-1-2.3-1.5-4-1.5s-2.8.4-3.8,1.2c-1,.8-1.8,1.8-2.4,3.2-.5,1.4-.8,2.9-.8,4.7s.5,3.5,1.4,4.5c1,1,2.3,1.5,3.9,1.5h0ZM236.3,29.9c-1.2,0-2.3-.2-3.2-.5-.9-.3-1.7-.9-2.3-1.5-.6-.7-1-1.6-1.2-2.6-.2-1-.2-2.3,0-3.6l1.7-10.9h2.5l-1.8,11.1c-.3,1.9,0,3.4.6,4.4.7,1,2,1.5,3.7,1.5s3-.4,4-1.3c1-.9,1.6-2.2,1.9-4.1l1.8-11.6h2.5l-1.8,11.7c-.2,1.7-.7,3.1-1.4,4.2-.7,1.1-1.6,2-2.8,2.5-1.2.6-2.6.8-4.3.8ZM252.6,29.7l2.7-16.8h-6.8l.3-2.1h16l-.3,2.1h-6.8l-2.7,16.8h-2.5,0ZM270.3,29.9c-.9,0-1.8,0-2.7-.2-.9-.1-1.7-.4-2.5-.7-.8-.3-1.5-.8-2.1-1.3l1-1.9c.7.5,1.3.9,2,1.2.7.3,1.4.5,2.1.6.7.1,1.5.2,2.3.2s1.7-.1,2.4-.4c.7-.3,1.2-.6,1.6-1.1.4-.5.6-1,.6-1.7s-.1-.9-.3-1.3c-.2-.4-.6-.7-1-1-.5-.3-1.1-.5-2-.7l-2.8-.7c-1.2-.3-2.2-.8-3-1.6-.7-.8-1.1-1.8-1.1-3.2s.2-1.7.5-2.4c.4-.7.9-1.3,1.5-1.8.7-.5,1.4-.9,2.3-1.1.9-.3,1.8-.4,2.8-.4s2.4.2,3.5.6c1.2.4,2.2,1,3,1.8l-1,1.9c-.8-.7-1.7-1.3-2.7-1.6-1-.3-1.9-.5-2.9-.5s-1.7.1-2.4.4c-.7.3-1.2.7-1.6,1.2-.4.5-.6,1.1-.6,1.8s.2,1.5.6,1.9c.4.4,1.1.7,2,.9l2.8.7c1.7.4,2.9.9,3.7,1.8.8.8,1.2,1.8,1.2,2.9s-.2,1.8-.6,2.4c-.4.7-.9,1.3-1.6,1.8-.7.5-1.4.8-2.3,1.1-.9.2-1.8.3-2.8.3h0Z"/>
  <path class="st0" d="M43.5,3.1c-5.1,5.9-10.1,11.8-15.2,17.7,3.7,5.7,7.3,11.3,11,17-.1,0-.2,0-.3,0-3.1,0-6.2,0-9.2,0-.2,0-.3-.1-.5-.3-1.9-2.8-3.7-5.5-5.6-8.3-.3-.4-.6-.7-1.1-.6-.3,0-.5,0-.8,0-.3,3.1-.6,6.1-.9,9.1-.3,0-17.5.1-18.3,0,0-.1.2-.2.2-.3,1.8-1.9,3.6-3.8,5.5-5.8,1.3-1.4,2.6-2.8,3.9-4.1.2-.2.2-.4.3-.6.2-1.9.4-3.7.6-5.6.2-1.6.3-3.1.5-4.7,0-.5,0-1.1.2-1.6,0-.3,0-.6-.2-.8-1.7-2.6-3.4-5.2-5.1-7.9-.7-1-1.3-2-2-3,0-.1-.2-.2-.3-.4.2,0,.3,0,.4,0,3.2,0,6.4,0,9.6,0,.2,0,.4,0,.5.3.3.5.6,1.1.9,1.6.1.3.3.4.6.4,2.8,0,5.6,0,8.3,0s3.1,0,4.7,0c.3,0,.5,0,.6-.3.4-.6.8-1.1,1.2-1.7.1-.2.3-.3.5-.3,3.2,0,6.5,0,9.7,0,0,0,.2,0,.4,0h0ZM21.8,13.8h10.4c.2,0,.4,0,.5-.2,1.9-2.1,3.9-4.1,5.8-6.2,0,0,0-.1.2-.2H15.7c-1,9.9-2,19.8-3.1,29.7h6.8c.3-3,.6-6,.9-8.9h10.5c0-.2-.2-.3-.2-.4-1.2-2-2.4-3.9-3.6-5.9-.1-.2-.3-.3-.6-.3-1.7,0-3.3,0-5,0h-.4c.3-2.6.5-5.1.8-7.6h0Z"/>
</svg>