<?xml version="1.0" encoding="UTF-8"?>
<svg id="Layer_1" data-name="Layer 1" xmlns="http://www.w3.org/2000/svg" viewBox="0 0 928.11 132">
  <defs>
    <style>
      .cls-1 {
        fill: #fff;
      }
    </style>
  </defs>
  <path class="cls-1" d="M421.39,12.37c-.1.42-.23.83-.27,1.27-.37,3.68-.71,7.34-1.07,11.03,0,.07-.06.15-.16.35-2.34.19-4.76.05-7.19.07-2.47.03-4.95,0-7.42,0h-51.64c-2.5,27.57-4.96,55.03-7.44,82.66.53.04.95.1,1.38.1h63.9c-.51,5.02-1,9.85-1.5,14.73h-87.9c2.82-32.47,5.64-64.84,8.48-97.35-.41-.05-.75-.14-1.09-.14h-23.98c-.28,0-.56.05-1.01.1-3.35,32.44-6.66,64.87-10.02,97.27-.98.26-24.75.32-26.23.05.4-5.39,1.07-10.76,1.59-16.16.52-5.42,1.1-10.82,1.67-16.22.57-5.41,1.12-10.82,1.68-16.22.56-5.37,1.11-10.74,1.67-16.11.56-5.41,1.1-10.82,1.66-16.22.56-5.4,1.1-10.81,1.63-16.07-.14-.19-.16-.22-.18-.25-.03-.03-.06-.05-.1-.06-.32-.03-.64-.1-.96-.1-29,0-58.01.01-87,.03-.12,0-.23.07-.48.16-2.67,27.4-5.33,54.85-8.02,82.45.58.04,1.08.12,1.57.12h33.99c1.52-14.54,3.03-28.96,4.53-43.31-.14-.13-.16-.16-.19-.19-.03-.03-.06-.05-.1-.06-.08-.02-.16-.03-.24-.04-.12,0-.24-.01-.36-.01-9-.01-18.02-.02-27.02-.03-.03,0-.07-.03-.12-.03-.19-.93.81-10.96,1.32-13.11.95-.24,52.55-.26,53.85,0-2.09,23.81-4.18,47.65-6.28,71.53h-88.68c3.45-37.38,6.9-74.71,10.36-112.1.38-.06.68-.13,1-.15.37-.03.73,0,1.09,0h253.39c.65,0,1.28.06,1.94.1v1.95l-.05-.02Z"/>
  <path class="cls-1" d="M479.71,36.52h-17.1l-6.41,59.95h17.1l6.41-59.95Z"/>
  <path class="cls-1" d="M436.77,96.47h17.1l6.41-59.95h-17.1l-6.41,59.95Z"/>
  <path class="cls-1" d="M440.86,36.52h-13.34l-6.13,59.95h13.07l6.4-59.95Z"/>
  <path class="cls-1" d="M482.01,36.52l-6.41,59.95h37.25l9.62-59.95h-40.46Z"/>
  <path class="cls-1" d="M526.42,95.6l9.61-60.91h22.23c4.23,0,7.81.63,10.72,1.9,2.92,1.21,5.12,3.05,6.61,5.53,1.54,2.42,2.32,5.44,2.32,9.07,0,4.2-.89,7.84-2.66,10.89-1.72,3.05-4.29,5.42-7.72,7.09-3.38,1.62-7.56,2.42-12.53,2.42h-16.82l-3.78,24.02h-7.98ZM539.21,65.1h16.3c4.75,0,8.35-1.12,10.82-3.37,2.52-2.3,3.78-5.64,3.78-10.02,0-3.63-1.06-6.27-3.18-7.95-2.12-1.67-5.27-2.5-9.44-2.5h-14.5l-3.78,23.85ZM568.87,95.6l36.48-60.91h6.78l17.17,60.91h-7.72l-4.46-16.93,2.83,1.73h-36.31l3.69-1.55-9.79,16.76h-8.68ZM607.67,43.76l-18.28,31.45-1.89-1.38h30.73l-2.06,1.47-8.33-31.54h-.18ZM646.72,95.6l4.97-31.54.86,5.35-19.4-34.74h8.67l14.76,26.62h-1.97l23.26-26.62h9.53l-30.39,34.74,2.67-5.35-4.98,31.54h-7.98ZM707.88,96.38c-5.15,0-9.64-1-13.47-3.02-3.78-2.02-6.73-4.99-8.85-8.9-2.05-3.97-3.09-8.76-3.09-14.34,0-5.12.68-9.88,2.06-14.26,1.37-4.44,3.38-8.29,6.01-11.58,2.68-3.28,5.92-5.82,9.69-7.6,3.84-1.85,8.21-2.77,13.14-2.77s9.61,1,13.39,3.02c3.83,2.02,6.78,4.99,8.84,8.9,2.12,3.92,3.17,8.67,3.17,14.26,0,5.19-.68,9.99-2.05,14.43-1.38,4.37-3.41,8.21-6.1,11.49-2.64,3.28-5.87,5.85-9.7,7.69-3.78,1.78-8.12,2.68-13.05,2.68h.01ZM708.06,89.3c4.86,0,8.93-1.27,12.19-3.8,3.32-2.53,5.84-5.99,7.56-10.37,1.77-4.37,2.66-9.36,2.66-14.95,0-6.45-1.54-11.26-4.64-14.43-3.03-3.17-7.26-4.75-12.71-4.75-4.81,0-8.87,1.27-12.19,3.8-3.26,2.47-5.78,5.9-7.56,10.29-1.72,4.37-2.57,9.36-2.57,14.95,0,6.51,1.54,11.34,4.64,14.51,3.1,3.17,7.3,4.75,12.62,4.75h0ZM771.19,96.38c-3.84,0-7.24-.55-10.22-1.64-2.92-1.1-5.35-2.74-7.29-4.92-1.89-2.25-3.18-5.04-3.86-8.39-.68-3.35-.66-7.22.08-11.66l5.5-35.08h7.98l-5.67,35.77c-.98,6.22-.28,10.91,2.06,14.08,2.35,3.17,6.3,4.75,11.85,4.75s9.69-1.38,12.79-4.15c3.09-2.77,5.12-7.17,6.1-13.22l5.83-37.24h7.98l-5.92,37.41c-.8,5.35-2.32,9.85-4.56,13.48-2.17,3.57-5.15,6.27-8.93,8.12-3.71,1.78-8.3,2.68-13.74,2.68ZM823.68,95.6l8.58-54.09h-21.72l1.03-6.82h51.41l-1.03,6.82h-21.72l-8.58,54.09h-7.98,0ZM880.59,96.38c-2.92,0-5.78-.26-8.58-.78-2.8-.46-5.47-1.24-7.98-2.33-2.46-1.1-4.69-2.54-6.7-4.32l3.18-6.05c2.12,1.62,4.26,2.9,6.44,3.89,2.24.98,4.52,1.67,6.87,2.07,2.4.4,4.89.6,7.47.6,2.98,0,5.55-.4,7.72-1.21,2.24-.87,3.95-2.07,5.15-3.63,1.26-1.55,1.89-3.37,1.89-5.44,0-1.5-.35-2.85-1.03-4.06-.68-1.21-1.8-2.25-3.34-3.12-1.54-.92-3.66-1.67-6.35-2.25l-9.01-2.17c-4.01-.98-7.21-2.68-9.61-5.1-2.4-2.42-3.61-5.82-3.61-10.19,0-2.82.58-5.35,1.72-7.6,1.21-2.3,2.86-4.27,4.97-5.87,2.12-1.62,4.56-2.82,7.3-3.63,2.8-.87,5.78-1.3,8.93-1.3,3.83,0,7.6.6,11.33,1.82,3.78,1.15,7.01,3.08,9.69,5.79l-3.17,5.96c-2.58-2.37-5.43-4.07-8.58-5.1-3.09-1.03-6.23-1.55-9.44-1.55-2.85,0-5.4.46-7.64,1.38-2.23.92-3.98,2.19-5.24,3.8-1.26,1.62-1.89,3.54-1.89,5.79,0,2.77.68,4.81,2.05,6.14,1.43,1.32,3.55,2.33,6.35,3.02l8.93,2.25c5.38,1.15,9.33,3.02,11.85,5.62,2.52,2.59,3.78,5.74,3.78,9.42,0,3-.63,5.62-1.89,7.86-1.21,2.25-2.9,4.15-5.07,5.7-2.12,1.5-4.61,2.65-7.47,3.45-2.8.75-5.81,1.12-9.01,1.12l-.02.04Z"/>
  <path class="cls-1" d="M152.54,10.46c-16.38,19.1-32.57,37.96-48.83,56.92,11.78,18.22,23.55,36.41,35.38,54.71-.38.06-.63.15-.89.15-9.88,0-19.77,0-29.65.02-.78,0-1.12-.38-1.5-.94-5.99-8.85-12.04-17.68-17.96-26.57-.93-1.39-1.87-2.14-3.55-1.87-.81.13-1.65.02-2.58.02-1.02,9.8-2.01,19.48-3.01,29.12-.93.29-56.15.4-58.88.13.29-.36.51-.65.77-.93,5.85-6.16,11.71-12.3,17.58-18.46,4.2-4.41,8.39-8.83,12.61-13.23.53-.55.8-1.14.87-1.91.6-5.99,1.23-11.98,1.85-17.97.51-4.99,1.02-9.97,1.52-14.96.18-1.73.28-3.46.56-5.19.17-1.05-.06-1.85-.63-2.7-5.51-8.41-10.98-16.84-16.46-25.26-2.1-3.23-4.22-6.46-6.32-9.71-.25-.39-.49-.8-.82-1.35.48-.05.81-.13,1.14-.13,10.28,0,20.56,0,30.84-.02.8,0,1.22.31,1.58.97.96,1.73,2.01,3.39,2.94,5.13.47.9,1.05,1.21,2.06,1.21,8.93-.04,17.86-.02,26.8-.02,5,0,10-.02,15,.02.9,0,1.45-.29,1.95-1.04,1.23-1.84,2.57-3.6,3.82-5.42.4-.58.84-.87,1.56-.86,10.36.02,20.72.01,31.08.02.3,0,.61.05,1.22.12h-.03ZM82.81,44.68h33.37c.66,0,1.21-.07,1.71-.6,6.24-6.68,12.52-13.32,18.77-19.97.18-.19.29-.42.5-.74H63.16c-3.28,31.83-6.56,63.61-9.84,95.48h21.74c.99-9.58,1.98-19.12,2.98-28.73h33.73c-.31-.57-.48-.92-.69-1.25-3.87-6.26-7.75-12.51-11.6-18.78-.45-.74-.97-1-1.82-1-5.32.03-10.64.02-15.95.02h-1.4c.84-8.21,1.68-16.22,2.52-24.41l-.02-.02Z"/>
</svg>