<svg width="94" height="54" viewBox="0 0 94 54" fill="none" xmlns="http://www.w3.org/2000/svg">
<path d="M10.4585 42.8207H7.39014L6.23975 53.5019H9.30815L10.4585 42.8207Z" fill="#b88857"/>
<path d="M2.75732 53.5019H5.82573L6.97612 42.8207H3.90772L2.75732 53.5019Z" fill="#b88857"/>
<path d="M3.49234 42.8207H1.09894L0 53.5019H2.344L3.49234 42.8207Z" fill="#b88857"/>
<path d="M10.8721 42.8207L9.72168 53.5019L16.4032 53.5019L18.1299 42.8207H10.8721Z" fill="#b88857"/>
<path d="M83.056 53.6885C82.5325 53.6885 82.0193 53.6423 81.5164 53.5499C81.0135 53.4678 80.5362 53.3293 80.0846 53.1343C79.6433 52.9393 79.243 52.6827 78.8838 52.3645L79.4534 51.2868C79.8332 51.5742 80.2181 51.8051 80.6081 51.9796C81.0084 52.1541 81.4189 52.2772 81.8397 52.3491C82.2708 52.4209 82.7173 52.4569 83.1791 52.4569C83.7129 52.4569 84.1747 52.385 84.5648 52.2413C84.965 52.0874 85.2729 51.8718 85.4885 51.5947C85.7143 51.3176 85.8272 50.9943 85.8272 50.6248C85.8272 50.3579 85.7656 50.1167 85.6424 49.9012C85.5193 49.6857 85.3191 49.5009 85.042 49.347C84.7649 49.1827 84.3851 49.0493 83.9027 48.9467L82.2862 48.5618C81.5677 48.3873 80.993 48.0845 80.5619 47.6535C80.1308 47.2224 79.9153 46.6168 79.9153 45.8368C79.9153 45.3339 80.0179 44.8823 80.2232 44.482C80.4387 44.0714 80.7364 43.7225 81.1161 43.4351C81.4959 43.1477 81.9321 42.9322 82.4248 42.7885C82.9277 42.6345 83.4614 42.5575 84.0259 42.5575C84.7136 42.5575 85.391 42.6653 86.0581 42.8808C86.7355 43.0861 87.3154 43.4299 87.7978 43.9123L87.2282 44.9746C86.7663 44.5538 86.2531 44.251 85.6886 44.0663C85.1344 43.8815 84.5699 43.7892 83.9951 43.7892C83.4819 43.7892 83.0252 43.8713 82.6249 44.0355C82.2246 44.1997 81.9116 44.4255 81.6858 44.7129C81.46 45.0003 81.3471 45.3441 81.3471 45.7444C81.3471 46.2371 81.4702 46.6014 81.7166 46.8375C81.9732 47.0736 82.3529 47.2532 82.8558 47.3763L84.457 47.7766C85.4218 47.9819 86.13 48.3155 86.5816 48.7773C87.0332 49.2392 87.259 49.7986 87.259 50.4554C87.259 50.9892 87.1461 51.4562 86.9203 51.8564C86.7047 52.2567 86.4019 52.5954 86.0119 52.8725C85.6322 53.1394 85.1857 53.3447 84.6725 53.4884C84.1696 53.6218 83.6307 53.6885 83.056 53.6885Z" fill="#b88857"/>
<path d="M72.8487 53.55L74.3882 43.9123H70.4932L70.6779 42.6961H79.8998L79.7151 43.9123H75.82L74.2805 53.55H72.8487Z" fill="#b88857"/>
<path d="M63.4349 53.6885C62.7472 53.6885 62.1365 53.591 61.6028 53.396C61.0793 53.201 60.6431 52.9085 60.2942 52.5184C59.9555 52.1182 59.7245 51.6204 59.6014 51.0251C59.4782 50.4298 59.4833 49.737 59.6168 48.9467L60.6021 42.6961H62.0339L61.0178 49.0698C60.8433 50.1783 60.9664 51.0148 61.3873 51.5793C61.8081 52.1438 62.5163 52.4261 63.5118 52.4261C64.4869 52.4261 65.2515 52.1797 65.8058 51.6871C66.36 51.1944 66.7244 50.4093 66.8989 49.3316L67.9458 42.6961H69.3775L68.3153 49.3624C68.1716 50.3169 67.8996 51.1175 67.4993 51.7641C67.1093 52.4004 66.5756 52.8828 65.8982 53.2112C65.231 53.5294 64.4099 53.6885 63.4349 53.6885Z" fill="#b88857"/>
<path d="M52.081 53.6885C51.1573 53.6885 50.3516 53.5089 49.6639 53.1497C48.9865 52.7904 48.4579 52.2619 48.0782 51.5639C47.7087 50.8557 47.5239 50.0038 47.5239 49.0083C47.5239 48.0948 47.6471 47.248 47.8934 46.468C48.1397 45.6777 48.499 44.99 48.9711 44.405C49.4535 43.82 50.0334 43.3684 50.7108 43.0502C51.3985 42.7217 52.1836 42.5575 53.0663 42.5575C53.9901 42.5575 54.7906 42.7371 55.468 43.0964C56.1557 43.4556 56.6843 43.9842 57.0538 44.6821C57.4335 45.38 57.6234 46.2268 57.6234 47.2224C57.6234 48.1461 57.5002 49.0031 57.2539 49.7934C57.0076 50.5735 56.6432 51.256 56.1608 51.841C55.6887 52.4261 55.1088 52.8828 54.4211 53.2112C53.7437 53.5294 52.9637 53.6885 52.081 53.6885ZM52.1118 52.4261C52.9842 52.4261 53.7129 52.2003 54.298 51.7487C54.8933 51.2971 55.3449 50.6812 55.6528 49.9012C55.9709 49.1212 56.13 48.2334 56.13 47.2378C56.13 46.0882 55.8529 45.2312 55.2987 44.6667C54.7547 44.1022 53.9952 43.82 53.0201 43.82C52.158 43.82 51.4293 44.0458 50.834 44.4974C50.2489 44.9387 49.7973 45.5494 49.4792 46.3294C49.1712 47.1095 49.0173 47.9973 49.0173 48.9929C49.0173 50.1527 49.2944 51.0148 49.8487 51.5793C50.4029 52.1438 51.1573 52.4261 52.1118 52.4261Z" fill="#b88857"/>
<path d="M41.1093 53.55L42.0022 47.9306L42.1562 48.8851L38.6768 42.6961H40.2317L42.8797 47.4379H42.5256L46.6978 42.6961H48.4067L42.9567 48.8851L43.434 47.9306L42.541 53.55H41.1093Z" fill="#b88857"/>
<path d="M27.146 53.55L33.6891 42.6961H34.9054L37.9845 53.55H36.5989L35.7983 50.5324L36.3063 50.8403H29.794L30.456 50.5632L28.7009 53.55H27.146ZM34.1048 44.3126L30.8255 49.9166L30.4868 49.6703H35.9984L35.6289 49.932L34.1356 44.3126H34.1048Z" fill="#b88857"/>
<path d="M19.5337 53.55L21.258 42.6961H25.2454C26.005 42.6961 26.6464 42.809 27.1699 43.0348C27.6933 43.2503 28.0885 43.5788 28.3553 44.0201C28.6325 44.4512 28.771 44.99 28.771 45.6366C28.771 46.3859 28.6119 47.0325 28.2938 47.5765C27.9858 48.1205 27.524 48.5413 26.9082 48.8389C26.3026 49.1263 25.5533 49.27 24.6604 49.27H21.6429L20.9655 53.55H19.5337ZM21.8276 48.1153H24.7528C25.6047 48.1153 26.2513 47.9152 26.6926 47.5149C27.1442 47.1043 27.37 46.5091 27.37 45.729C27.37 45.0824 27.1801 44.6103 26.8004 44.3126C26.4206 44.015 25.8561 43.8662 25.1069 43.8662H22.505L21.8276 48.1153Z" fill="#b88857"/>
<path d="M90.6686 0.687997C90.6372 0.830458 90.5924 0.968467 90.5767 1.11315C90.4534 2.34411 90.3368 3.57506 90.2157 4.80823C90.2134 4.83272 90.1933 4.8572 90.1619 4.92398C89.3727 4.98631 88.5565 4.94179 87.7426 4.94847C86.9108 4.95737 86.0745 4.94847 85.2427 4.94847H67.8507C67.0099 14.1884 66.1804 23.3927 65.3463 32.6504C65.5212 32.6638 65.6647 32.6816 65.8082 32.6816C66.8194 32.6838 67.8306 32.6816 68.8417 32.6816H87.3346C87.1619 34.3644 86.9983 35.9827 86.8301 37.621H57.2209C58.1716 26.7405 59.1222 15.8912 60.0751 4.99521C59.9361 4.97741 59.8218 4.94847 59.7074 4.94847C57.0169 4.94624 54.3241 4.94624 51.6314 4.94847C51.5372 4.94847 51.443 4.96628 51.2906 4.97963C50.1583 15.849 49.0462 26.7205 47.9162 37.5787C47.5866 37.6655 39.5801 37.6833 39.0801 37.5965C39.2146 35.7913 39.4411 33.9882 39.6159 32.1808C39.7886 30.3666 39.9881 28.5547 40.1765 26.7428C40.3648 24.9308 40.5531 23.1167 40.7415 21.3048C40.9276 19.5062 41.1159 17.7054 41.302 15.9068C41.4881 14.0949 41.6742 12.2808 41.8603 10.4688C42.0464 8.65913 42.2302 6.8472 42.4074 5.08425C42.3625 5.0197 42.3558 5.00857 42.3468 4.99966C42.3379 4.99076 42.3244 4.98186 42.311 4.97963C42.2033 4.9685 42.0957 4.94847 41.9881 4.94847C32.2193 4.94847 22.4482 4.95292 12.6793 4.95737C12.6412 4.95737 12.6031 4.98186 12.5157 5.0108C11.6188 14.1928 10.7197 23.3927 9.81394 32.6438C10.009 32.6593 10.1772 32.6816 10.3453 32.6816C13.9798 32.6838 17.6142 32.6816 21.2509 32.6816H21.7912C22.3047 27.809 22.8114 22.9742 23.3181 18.1684C23.2733 18.1261 23.2643 18.115 23.2531 18.1061C23.2419 18.0972 23.2307 18.0883 23.2195 18.0838C23.1926 18.0771 23.1656 18.0727 23.1387 18.0705C23.0984 18.0682 23.058 18.066 23.0177 18.066C19.9841 18.0616 16.9505 18.0593 13.917 18.0549C13.9058 18.0549 13.8923 18.046 13.8789 18.0437C13.8138 17.7321 14.1524 14.3709 14.3228 13.6519C14.6457 13.5718 32.0242 13.5629 32.4614 13.6519C31.7574 21.632 31.0556 29.6187 30.3471 37.6232H0.475586C1.63924 25.0956 2.80064 12.5857 3.9643 0.0536009C4.09209 0.0335673 4.19523 0.0113078 4.29837 0.00462998C4.42168 -0.00427383 4.545 0.00240403 4.66607 0.00240403C33.1161 0.00240403 61.5661 0.00240403 90.0161 0.00240403C90.2336 0.00240403 90.4489 0.0246635 90.6686 0.0357933V0.690223V0.687997Z" fill="#04417B"/>
</svg>
